<svg width="20" height="20" fill="none" xmlns="http://www.w3.org/2000/svg"><path d="M0 6.25v7.5A6.25 6.25 0 006.25 20h7.5A6.25 6.25 0 0020 13.75v-7.5A6.25 6.25 0 0013.75 0h-7.5A6.25 6.25 0 000 6.25zm13.75-4.375a4.38 4.38 0 014.375 4.375v7.5a4.38 4.38 0 01-4.375 4.375h-7.5a4.38 4.38 0 01-4.375-4.375v-7.5A4.38 4.38 0 016.25 1.875h7.5z" fill="#000"/><path d="M5 10a5 5 0 1010 0 5 5 0 00-10 0zm8.125 0A3.13 3.13 0 0110 13.125 3.129 3.129 0 016.875 10 3.129 3.129 0 0110 6.875 3.13 3.13 0 0113.125 10zM5.291 4.625a.666.666 0 10-1.332 0 .666.666 0 001.332 0z" fill="#000"/></svg> 1.875Z" fill="black"/>
<path d="M5 10C5 12.7612 7.23875 15 10 15C12.7613 15 15 12.7612 15 10C15 7.23875 12.7612 5 10 5C7.23875 5 5 7.23875 5 10ZM13.125 10C13.125 11.7225 11.7225 13.125 10 13.125C8.27625 13.125 6.875 11.7225 6.875 10C6.875 8.2775 8.27625 6.875 10 6.875C11.7225 6.875 13.125 8.2775 13.125 10Z" fill="black"/>
<path d="M5.29123 4.625C5.29123 4.25704 4.99295 3.95875 4.62499 3.95875C4.25703 3.95875 3.95874 4.25704 3.95874 4.625C3.95874 4.99296 4.25703 5.29125 4.62499 5.29125C4.99295 5.29125 5.29123 4.99296 5.29123 4.625Z" fill="black"/>
</svg>
