<svg version="1.0" xmlns="http://www.w3.org/2000/svg" width="40" height="40" viewBox="0 0 30 30"><path d="M17.2 1.6c-1.1 1.2-1 1.7.2 3 1.5 1.4 1.7 1.4 3.2 0 1.4-1.4 1.4-1.8 0-3.1-1.8-1.8-1.8-1.8-3.4.1zM6.4 7.1C4 9.6 3.5 11 3.5 15c0 7.1 4.4 11.5 11.5 11.5 4 0 5.4-.5 7.9-2.9 4.2-4 4-5.2-.9-4.8-3.5.4-4.4 0-7.6-3.2-3.2-3.2-3.6-4.1-3.2-7.6.4-4.9-.8-5.1-4.8-.9zM24 8.5c0 .8-.7 1.5-1.5 1.5s-1.5.4-1.5 1c0 .5.7 1 1.5 1s1.5.7 1.5 1.5.5 1.5 1 1.5c.6 0 1-.7 1-1.5s.7-1.5 1.5-1.5 1.5-.5 1.5-1c0-.6-.7-1-1.5-1S26 9.3 26 8.5 25.6 7 25 7c-.5 0-1 .7-1 1.5z"/></svg>