<svg xmlns="http://www.w3.org/2000/svg" viewBox="0 0 256 256" width="30" height="30"><path d="M127.867 8.417a8.534 8.534 0 00-8.4 8.65v25.6a8.534 8.534 0 1017.066 0v-25.6a8.534 8.534 0 00-8.666-8.65zm-78.4 32.533a8.534 8.534 0 00-5.934 14.65l18.1 18.1A8.534 8.534 0 1073.7 61.633l-18.1-18.1a8.534 8.534 0 00-6.133-2.583zm156.8 0a8.534 8.534 0 00-5.867 2.583l-18.1 18.1A8.534 8.534 0 10194.367 73.7l18.1-18.1a8.534 8.534 0 00-6.2-14.65zM128 68.267c-32.99 0-59.733 26.743-59.733 59.733 0 32.99 26.743 59.733 59.733 59.733 32.99 0 59.733-26.743 59.733-59.733 0-32.99-26.743-59.733-59.733-59.733zm-110.933 51.2a8.534 8.534 0 100 17.066h25.6a8.534 8.534 0 100-17.066zm196.266 0a8.534 8.534 0 100 17.066h25.6a8.534 8.534 0 100-17.066zM67.5 179.717a8.534 8.534 0 00-5.867 2.583l-18.1 18.1A8.534 8.534 0 1055.6 212.467l18.1-18.1a8.534 8.534 0 00-6.2-14.65zm120.75 0a8.534 8.534 0 00-5.95 14.65l18.1 18.1a8.534 8.534 0 1012.067-12.067l-18.1-18.1a8.534 8.534 0 00-6.117-2.583zm-60.383 24.966a8.534 8.534 0 00-8.4 8.65v25.6a8.534 8.534 0 1017.066 0v-25.6a8.534 8.534 0 00-8.666-8.65z" fill="#fff" font-family="none" font-weight="none" font-size="none" text-anchor="none"/></svg>